<svg version="1.1" id="Layer_1" xmlns="http://www.w3.org/2000/svg" xmlns:xlink="http://www.w3.org/1999/xlink" x="0px" y="0px"
	 width="100%" viewBox="0 0 4096 1610" enable-background="new 0 0 4096 1610" xml:space="preserve">
<path fill="#000000" opacity="1.000000" stroke="none" 
	d="
M2844.000000,1612.000000 
	C1896.000122,1612.000000 949.000366,1612.000000 2.000381,1612.000000 
	C2.000254,1075.333618 2.000254,538.667175 2.000127,2.000597 
	C1367.332886,2.000398 2732.665771,2.000398 4097.999023,2.000199 
	C4097.999023,538.666077 4097.999023,1075.332153 4097.999512,1611.999023 
	C3680.333252,1612.000000 3262.666748,1612.000000 2844.000000,1612.000000 
M2680.491699,993.929565 
	C2676.877197,992.252808 2673.343750,990.366821 2669.634766,988.934448 
	C2650.382568,981.499207 2634.331299,986.840698 2621.387207,1000.296265 
	C2599.775635,1022.761902 2603.608887,1062.190796 2613.554932,1080.977783 
	C2623.483398,1099.732178 2645.996094,1108.107544 2664.487305,1101.236206 
	C2670.278076,1099.084106 2675.301025,1094.891479 2680.742188,1091.748413 
	C2681.781738,1091.147949 2683.133789,1091.089111 2684.609619,1090.711914 
	C2685.641113,1093.906982 2686.517334,1096.620605 2687.305420,1099.061523 
	C2693.722412,1099.061523 2699.452881,1099.061523 2705.005371,1099.061523 
	C2707.421631,1082.963379 2706.498047,945.757080 2703.961670,938.696838 
	C2696.962402,938.115601 2689.818359,936.832336 2682.052734,940.023071 
	C2682.052734,958.087097 2682.052734,976.022583 2681.999268,994.004517 
	C2681.999268,994.004517 2681.953857,994.059631 2680.491699,993.929565 
M669.000000,1284.078857 
	C801.325317,1284.078369 933.650635,1284.110352 1065.975830,1283.996582 
	C1073.912476,1283.989746 1081.916382,1283.280640 1089.773193,1282.117188 
	C1145.277222,1273.898438 1191.480225,1248.647705 1228.749756,1206.594238 
	C1245.740723,1187.422363 1258.847290,1166.145142 1268.752563,1142.583496 
	C1279.072021,1118.036255 1285.605469,1092.424194 1285.652954,1066.071899 
	C1286.088013,824.420105 1285.911621,582.767273 1285.882812,341.114716 
	C1285.882446,337.889130 1285.483521,334.663605 1285.181763,330.090424 
	C1279.878296,330.090424 1275.313354,330.090454 1270.748291,330.090454 
	C1037.428589,330.090454 804.108826,330.121948 570.789124,330.026367 
	C553.461914,330.019257 536.304993,330.874969 519.188110,333.836334 
	C474.527985,341.562744 436.156219,361.775085 403.079895,392.220398 
	C379.993347,413.470581 362.805023,439.137390 350.165833,467.781982 
	C339.460632,492.043579 332.136932,517.462830 332.104065,544.008240 
	C331.803162,786.993713 331.921570,1029.979614 331.947784,1272.965454 
	C331.948151,1276.196533 332.339874,1279.427612 332.640839,1284.079102 
	C444.590332,1284.079102 555.795166,1284.079102 669.000000,1284.078857 
M1687.049072,696.148682 
	C1690.231323,687.747620 1693.532227,679.389343 1696.573975,670.937683 
	C1706.491699,643.380493 1716.296265,615.782532 1726.225220,588.229309 
	C1726.752686,586.765869 1728.022705,585.570007 1728.946899,584.249512 
	C1728.122314,604.901978 1725.466553,624.953796 1724.071777,645.092957 
	C1722.694824,664.974365 1722.140747,684.942261 1722.058472,704.875671 
	C1721.975464,724.996521 1720.896851,745.191711 1722.846558,765.319458 
	C1746.860718,765.319458 1769.684448,765.319458 1793.182129,765.319458 
	C1793.182129,666.835327 1793.182129,569.113220 1793.182129,470.510559 
	C1788.937622,470.290375 1785.377930,469.954712 1781.817383,469.945923 
	C1761.159302,469.895020 1740.500854,469.900574 1719.842529,469.929108 
	C1708.498535,469.944763 1709.432251,469.213074 1705.816772,479.733643 
	C1699.758179,497.363342 1693.457275,514.910645 1687.500732,532.574402 
	C1676.551636,565.043518 1665.784912,597.574158 1654.922852,630.072693 
	C1653.746704,633.591248 1652.443604,637.067383 1650.433472,642.715088 
	C1648.647461,638.104431 1647.628906,636.061401 1647.053833,633.900269 
	C1640.288208,608.477417 1631.942627,583.586304 1622.639648,558.978943 
	C1612.637695,532.522766 1603.187134,505.858673 1593.394531,479.322723 
	C1590.028320,470.201538 1589.525269,469.951111 1579.561157,469.933136 
	C1558.569580,469.895233 1537.578003,469.889771 1516.586670,469.955841 
	C1513.390747,469.965912 1510.196045,470.429810 1507.289062,470.660889 
	C1504.974976,482.775879 1505.509644,757.716858 1507.969116,765.897766 
	C1530.078857,766.114136 1552.490479,766.366272 1575.413330,765.735901 
	C1575.695679,761.438721 1576.051758,758.510620 1576.055054,755.582153 
	C1576.087158,727.260254 1576.737671,698.916321 1575.816406,670.624146 
	C1575.180908,651.106445 1572.340210,631.661072 1570.499146,612.182007 
	C1569.567627,602.326111 1568.667603,592.467224 1567.753174,582.609680 
	C1570.037964,583.900757 1570.893799,585.556091 1571.507690,587.296692 
	C1583.241211,620.570190 1594.884155,653.875671 1606.684692,687.125366 
	C1612.027344,702.179138 1617.564575,717.166382 1623.214844,732.107605 
	C1626.988525,742.086365 1627.147461,742.043335 1637.436401,742.073608 
	C1645.766235,742.098145 1654.103271,741.867615 1662.423828,742.146912 
	C1667.843140,742.328857 1670.946655,740.515625 1672.770386,735.098755 
	C1677.015747,722.488708 1681.863159,710.081421 1687.049072,696.148682 
M3257.010742,469.919922 
	C3247.808105,469.968323 3238.605713,470.016693 3229.764893,470.063202 
	C3227.357910,480.825073 3227.567383,756.905273 3229.662842,764.725464 
	C3239.615479,766.955505 3295.578613,766.578491 3303.914795,763.867554 
	C3303.914795,760.646057 3303.996582,757.051208 3303.901855,753.460938 
	C3302.999268,719.199646 3305.891602,684.876770 3302.112305,650.659180 
	C3300.109619,632.526184 3298.319824,614.369263 3296.502197,596.216309 
	C3295.712891,588.333191 3295.095459,580.432922 3294.399902,572.540405 
	C3297.417969,575.183289 3298.795410,578.132507 3300.076416,581.123047 
	C3306.890137,597.031738 3313.075439,613.242371 3320.592529,628.810486 
	C3341.450928,672.009399 3362.953857,714.896606 3383.941895,758.033569 
	C3386.813477,763.935120 3390.356201,766.337158 3397.012695,766.219543 
	C3418.335205,765.843018 3439.668701,766.109680 3460.997559,766.035950 
	C3463.551025,766.027161 3466.102295,765.451538 3468.416504,765.167847 
	C3470.653320,755.097778 3470.425781,479.041840 3468.327393,471.269409 
	C3458.708496,469.126770 3402.589111,469.423615 3394.495117,471.849457 
	C3394.313965,474.538239 3393.948730,477.464661 3393.945801,480.391388 
	C3393.916992,509.052460 3393.934082,537.713623 3393.975342,566.374756 
	C3393.983887,572.371948 3393.676758,578.419678 3394.319824,584.356934 
	C3396.641113,605.793030 3399.369873,627.184753 3401.781494,648.611572 
	C3402.203613,652.361877 3401.841309,656.200378 3401.841309,659.998169 
	C3399.323975,659.062317 3398.424805,657.850342 3397.850586,656.500061 
	C3389.774414,637.513489 3382.518311,618.132690 3373.541992,599.583801 
	C3353.656982,558.491760 3332.836182,517.853333 3312.615479,476.921967 
	C3310.039795,471.708099 3306.801514,469.662567 3300.997070,469.808472 
	C3287.008789,470.160126 3273.005371,469.920715 3257.010742,469.919922 
M2327.000000,766.081299 
	C2335.997070,766.081116 2345.013428,765.705017 2353.987305,766.161682 
	C2370.834229,767.018982 2387.152100,764.330200 2403.231445,759.732300 
	C2418.770996,755.288818 2433.232666,748.537170 2445.335449,737.669434 
	C2470.017578,715.506226 2472.465576,686.926208 2466.281250,657.053162 
	C2461.678467,634.818970 2445.651855,621.292786 2425.635742,612.155151 
	C2423.474854,611.168701 2421.415039,609.960693 2419.420166,608.914124 
	C2425.604736,603.964355 2431.962402,600.448792 2436.189453,595.213196 
	C2451.956055,575.684509 2458.772949,553.543945 2454.115967,528.237122 
	C2450.651855,509.413940 2442.033936,494.894104 2424.377441,486.015228 
	C2403.399414,475.466095 2380.892578,470.985168 2357.933105,470.346588 
	C2320.639893,469.309326 2283.299316,469.958374 2245.978760,469.956329 
	C2243.083984,469.956177 2240.188965,470.433105 2236.658691,470.744324 
	C2236.658691,569.155640 2236.658691,666.880798 2236.658691,766.081543 
	C2266.582520,766.081543 2295.791260,766.081543 2327.000000,766.081299 
M2502.086182,632.586548 
	C2502.670898,637.191406 2503.376221,641.784668 2503.819336,646.403198 
	C2505.880859,667.891785 2512.014404,688.115662 2522.462158,707.016541 
	C2535.623535,730.826355 2554.708252,748.502563 2579.230957,759.899292 
	C2609.639160,774.031128 2641.839600,775.813782 2673.967529,768.643555 
	C2720.520020,758.254150 2751.356201,729.059021 2767.581299,684.374878 
	C2772.718506,670.227539 2774.899414,655.491760 2776.549805,640.531982 
	C2779.958252,609.639099 2777.843750,579.314941 2767.511719,550.036133 
	C2753.536377,510.434082 2726.161377,483.896118 2686.053711,471.052765 
	C2661.202637,463.094910 2635.857422,462.212524 2610.184326,466.857086 
	C2592.898193,469.984283 2576.451660,475.614746 2562.127686,485.528870 
	C2534.579102,504.596344 2516.185547,530.441040 2508.049316,563.321838 
	C2502.561035,585.500183 2501.144287,607.962891 2502.086182,632.586548 
M1937.916748,571.512756 
	C1937.916138,560.180237 1937.915039,548.847717 1937.914795,537.515198 
	C1937.914429,526.515869 1938.010620,515.515442 1937.888062,504.517487 
	C1937.763428,493.332214 1938.443726,482.093597 1937.478271,471.276428 
	C1923.397461,468.734467 1865.540039,469.493958 1858.085205,472.373016 
	C1858.085205,475.660919 1858.085205,479.286652 1858.085205,482.912384 
	C1858.085205,572.906921 1858.073608,662.901489 1858.121582,752.896057 
	C1858.123779,757.042419 1858.658447,761.188538 1858.925537,765.052429 
	C1873.491333,767.048401 1929.570557,766.433228 1937.914673,764.024536 
	C1937.914673,760.827332 1937.914551,757.253052 1937.914673,753.678772 
	C1937.915527,736.013184 1937.805054,718.346313 1938.010986,700.683105 
	C1938.052246,697.137207 1938.338379,692.983643 1940.157837,690.177429 
	C1947.030762,679.576050 1954.540405,669.384277 1961.935669,659.128662 
	C1962.804321,657.924011 1964.441284,657.273438 1966.368408,655.908081 
	C1968.707886,659.437073 1970.855835,662.327759 1972.642578,665.426697 
	C1990.599243,696.569763 2008.638428,727.667114 2026.276733,758.989929 
	C2029.359985,764.465088 2033.014771,766.249939 2039.003906,766.182556 
	C2061.666504,765.927612 2084.333496,766.103149 2106.998779,766.048218 
	C2109.544434,766.042053 2112.088867,765.593933 2115.560791,765.262268 
	C2114.443359,762.397827 2113.920654,760.181213 2112.803223,758.322021 
	C2081.424316,706.107971 2050.001221,653.920410 2018.541992,601.754639 
	C2012.293945,591.394226 2012.239502,589.644287 2019.109253,580.334106 
	C2044.199219,546.330933 2069.317871,512.349060 2094.366211,478.315338 
	C2096.009521,476.082703 2097.152344,473.481720 2099.168213,469.920715 
	C2094.662354,469.920715 2091.694336,469.920715 2088.726318,469.920715 
	C2067.061035,469.920563 2045.386230,470.284943 2023.735229,469.724701 
	C2016.045776,469.525696 2011.702271,472.204071 2007.566772,478.462769 
	C1987.372070,509.025330 1966.709595,539.278870 1946.196045,569.630554 
	C1944.123291,572.697449 1942.271240,576.045776 1937.917847,578.036499 
	C1937.917847,575.720764 1937.917847,574.399292 1937.916748,571.512756 
M3746.079590,529.113831 
	C3752.754395,520.943115 3759.429443,512.772339 3766.808350,503.739685 
	C3761.691650,499.445740 3757.597656,495.688110 3753.181641,492.357544 
	C3728.487305,473.733582 3700.751465,463.788940 3669.695557,464.143005 
	C3644.396973,464.431427 3620.372070,469.898468 3597.816650,481.941071 
	C3559.178955,502.570312 3536.637695,535.117859 3526.015137,576.799011 
	C3521.189941,595.732117 3521.410645,615.072266 3522.026367,634.359497 
	C3522.823486,659.325806 3528.774658,683.014282 3541.397461,704.783813 
	C3555.018066,728.273926 3574.382568,745.783203 3598.863525,757.033691 
	C3630.178955,771.425049 3663.163330,775.187439 3697.305176,770.172302 
	C3721.919678,766.556641 3743.901123,757.009460 3763.990723,742.657104 
	C3769.474121,738.739746 3772.140625,733.899109 3772.081543,726.660278 
	C3771.750000,686.011536 3771.938477,645.358643 3771.891357,604.707275 
	C3771.887451,601.499634 3771.443115,598.292480 3771.224854,595.368469 
	C3759.123291,592.894165 3666.032471,593.473022 3659.113770,595.855530 
	C3657.055420,608.086182 3657.674561,650.296509 3660.433350,658.315918 
	C3673.495605,658.315918 3686.997803,658.315918 3701.703369,658.315918 
	C3701.703369,671.724365 3701.979004,683.949646 3701.422119,696.137085 
	C3701.333252,698.083435 3697.721436,701.089294 3695.377441,701.488770 
	C3687.568848,702.819397 3679.568604,704.027161 3671.690674,703.773865 
	C3641.794434,702.812866 3617.488281,688.094238 3608.133057,657.106628 
	C3605.755859,649.232300 3604.994873,640.859009 3603.632812,632.691406 
	C3599.841309,609.959595 3603.520508,588.402161 3613.967285,567.926208 
	C3631.476318,533.608276 3676.049316,521.993469 3708.120361,542.760559 
	C3713.634521,546.331299 3719.031494,550.083435 3725.333740,554.324341 
	C3732.157715,546.029663 3738.666504,538.117920 3746.079590,529.113831 
M2825.009521,469.920441 
	C2814.927979,470.390289 2804.709473,468.907349 2793.863281,471.076019 
	C2794.992676,474.340118 2795.461426,476.591309 2796.493652,478.544800 
	C2818.884766,520.928284 2841.258789,563.321472 2863.873291,605.585815 
	C2866.991211,611.413269 2867.339844,616.159485 2864.054932,622.205688 
	C2850.387939,647.359802 2837.286133,672.820740 2823.902344,698.129395 
	C2813.943848,716.960693 2803.827148,735.708435 2793.891602,754.551819 
	C2792.283203,757.603088 2791.251465,760.958618 2789.705811,764.785828 
	C2792.647949,765.393738 2794.216553,765.996033 2795.786865,766.000610 
	C2819.443848,766.069031 2843.101807,765.956970 2866.757324,766.144897 
	C2872.097900,766.187378 2874.251465,763.530457 2876.047363,758.997559 
	C2884.626465,737.341797 2893.483643,715.796021 2902.262939,694.219849 
	C2905.960205,685.134277 2909.710693,676.070557 2913.963379,665.715271 
	C2915.680420,668.575562 2916.838623,670.101746 2917.584717,671.808228 
	C2930.249023,700.766907 2942.927734,729.719788 2955.425781,758.750366 
	C2957.677002,763.979431 2960.782715,766.283569 2966.759521,766.206055 
	C2990.745850,765.894958 3014.738770,766.104858 3038.729004,766.019958 
	C3040.840332,766.012451 3042.948730,765.262512 3046.140869,764.649597 
	C3042.439697,757.201660 3039.400635,750.606628 3035.955322,744.231079 
	C3015.069824,705.583557 2994.290283,666.875854 2972.976562,628.465149 
	C2968.723633,620.800537 2969.150635,614.870117 2973.076904,607.305115 
	C2994.864746,565.326172 3016.149170,523.085693 3037.557373,480.910156 
	C3039.113525,477.843994 3040.282715,474.581390 3041.958740,470.641083 
	C3038.063477,470.310791 3035.778320,469.953125 3033.492432,469.948669 
	C3011.501221,469.905823 2989.510010,469.882629 2967.518799,469.941864 
	C2958.840088,469.965271 2958.728027,470.023987 2955.501709,478.594360 
	C2945.535889,505.064270 2935.674316,531.573425 2925.736816,558.054077 
	C2924.854004,560.407227 2923.713379,562.663635 2921.697021,567.208618 
	C2907.491455,533.576965 2894.134277,501.953278 2880.604004,469.920166 
	C2862.243652,469.920166 2844.624512,469.920166 2825.009521,469.920441 
M3084.084229,485.186737 
	C3084.084229,488.516602 3084.083740,491.846466 3084.083740,495.176331 
	C3084.083740,581.086670 3084.072021,666.997009 3084.120361,752.907349 
	C3084.122803,757.049805 3084.657715,761.191956 3084.925049,765.051941 
	C3098.982666,766.983765 3155.439209,766.413757 3163.204590,764.291504 
	C3163.204590,666.781799 3163.204590,569.104858 3163.204590,469.936371 
	C3136.787109,469.967987 3111.092285,469.751343 3084.084229,470.115631 
	C3084.084229,475.435181 3084.084229,479.342072 3084.084229,485.186737 
M1757.911743,1021.978943 
	C1756.494507,1016.998901 1755.077393,1012.018799 1753.518066,1006.539307 
	C1759.757935,1006.166016 1765.277588,1005.835815 1771.238281,1005.479187 
	C1771.238281,999.470032 1771.238281,994.408386 1771.238281,988.076904 
	C1765.851440,988.076904 1761.280396,988.166565 1756.714111,988.058105 
	C1747.418335,987.837524 1738.122559,987.577515 1728.832031,987.203613 
	C1722.215820,986.937439 1715.437988,985.332581 1709.030640,986.299988 
	C1693.910645,988.582947 1680.957642,995.019836 1674.928955,1010.390503 
	C1669.046631,1025.388184 1671.801025,1039.073486 1682.186279,1051.310181 
	C1683.425659,1052.770630 1684.494141,1054.376099 1685.524780,1055.757568 
	C1671.114746,1075.936646 1670.842651,1080.351318 1682.895874,1096.596924 
	C1680.997925,1098.330078 1679.041992,1100.071167 1677.135254,1101.864502 
	C1661.968872,1116.129517 1668.270386,1137.733398 1683.671875,1143.975342 
	C1707.195679,1153.509277 1730.380737,1152.936279 1753.160034,1142.180298 
	C1761.412476,1138.283691 1767.530884,1131.656860 1771.489136,1123.175293 
	C1778.762329,1107.590210 1771.052856,1090.471802 1754.348022,1086.134888 
	C1749.259521,1084.813843 1743.893433,1084.228271 1738.625366,1084.009155 
	C1730.317627,1083.663696 1721.959961,1084.301392 1713.672852,1083.762939 
	C1708.810913,1083.447144 1703.813599,1082.221191 1699.304688,1080.365845 
	C1695.332642,1078.731323 1693.466553,1074.945557 1695.013428,1070.421875 
	C1696.424561,1066.295288 1698.983765,1063.481934 1703.838501,1063.968506 
	C1705.490112,1064.134155 1707.147583,1064.310913 1708.777222,1064.616943 
	C1736.694946,1069.859741 1758.049927,1052.126709 1757.911743,1021.978943 
M2408.580811,1053.182251 
	C2413.369873,1035.824707 2413.128906,1018.344116 2409.722412,1000.820984 
	C2404.303223,972.943909 2380.890869,953.968689 2355.015625,951.850769 
	C2353.367676,951.715942 2351.744385,951.063049 2350.106934,951.051636 
	C2334.177734,950.941467 2318.247803,950.904785 2302.318115,950.925232 
	C2301.841797,950.925842 2301.366455,951.778564 2300.075439,953.014343 
	C2300.103760,1001.060364 2300.017578,1049.878662 2300.135498,1099.423462 
	C2304.816406,1099.700928 2308.052979,1100.038696 2311.291504,1100.058228 
	C2322.620850,1100.126221 2333.967041,1099.695435 2345.277588,1100.161743 
	C2372.510010,1101.284546 2400.869385,1084.159180 2408.580811,1053.182251 
M1837.284668,1007.900696 
	C1851.904175,1004.094177 1861.830688,1011.177307 1862.005737,1026.050293 
	C1862.248413,1046.685303 1862.042480,1067.325439 1862.095459,1087.963013 
	C1862.104614,1091.524414 1862.444336,1095.084961 1862.662476,1099.239624 
	C1871.238403,1099.239624 1878.944702,1099.239624 1887.352905,1099.239624 
	C1887.571167,1095.192139 1887.887207,1091.944214 1887.897949,1088.695312 
	C1887.950439,1072.717896 1888.150024,1056.735474 1887.832520,1040.764160 
	C1887.654907,1031.833130 1887.065796,1022.848816 1885.793823,1014.013611 
	C1883.096802,995.278015 1872.011230,986.172302 1853.114868,985.860596 
	C1843.002563,985.693787 1834.213501,988.812256 1826.201416,994.754211 
	C1824.054932,996.346008 1821.606323,997.530640 1817.403564,1000.026306 
	C1817.403564,978.196411 1817.403564,958.719788 1817.403564,939.537354 
	C1806.965454,937.435913 1802.342041,937.565979 1795.032349,939.897339 
	C1792.904663,951.516968 1793.517090,1091.973389 1795.846191,1099.327881 
	C1802.841064,1100.241699 1809.940552,1101.127319 1817.929932,1098.270020 
	C1817.929932,1094.547363 1817.929810,1090.948242 1817.929932,1087.349121 
	C1817.930786,1067.709839 1817.961182,1048.070435 1817.908813,1028.431396 
	C1817.897949,1024.330688 1817.972656,1020.285889 1821.733521,1017.667603 
	C1826.352417,1014.452148 1831.112915,1011.440186 1837.284668,1007.900696 
M2070.267090,1099.191772 
	C2091.566162,1107.685059 2110.376953,1103.916504 2127.067383,1088.153931 
	C2136.749023,1079.010498 2141.970947,1067.784668 2143.184326,1054.839722 
	C2145.402100,1031.180298 2140.966309,1010.005981 2120.111816,994.935974 
	C2101.780029,981.688904 2073.235596,983.138733 2056.396240,998.472107 
	C2041.664551,1011.886292 2037.208374,1028.898071 2037.904053,1048.018799 
	C2038.730591,1070.734497 2047.639648,1088.374268 2070.267090,1099.191772 
M2501.980225,1082.799438 
	C2506.725098,1086.916748 2511.014893,1091.776733 2516.298584,1095.014526 
	C2533.346924,1105.461182 2551.204346,1105.843140 2569.726562,1098.528931 
	C2584.257324,1092.790894 2585.254150,1090.266479 2575.783936,1077.367188 
	C2575.608643,1077.128662 2575.202881,1077.059692 2574.328125,1076.625000 
	C2569.227295,1078.602173 2563.836182,1081.170776 2558.174316,1082.796021 
	C2541.489258,1087.585938 2524.425537,1079.430298 2517.944580,1063.612061 
	C2516.671631,1060.505127 2516.653320,1056.884155 2515.875000,1052.472900 
	C2520.844482,1052.247559 2524.418701,1051.956421 2527.993896,1051.945068 
	C2544.969727,1051.891602 2561.946777,1052.023682 2578.921143,1051.860107 
	C2586.500732,1051.787109 2587.949951,1050.631836 2587.810791,1043.197510 
	C2587.656250,1034.942871 2587.495605,1026.423950 2585.394287,1018.537903 
	C2582.836426,1008.937073 2577.782471,1000.350891 2569.700195,993.687927 
	C2557.322754,983.484192 2531.600098,983.104980 2517.730713,992.281372 
	C2497.851318,1005.434265 2489.969482,1024.978027 2490.454834,1047.813232 
	C2490.707764,1059.724121 2494.110352,1071.446167 2501.980225,1082.799438 
M1505.916870,997.000000 
	C1505.916870,1030.881226 1505.916870,1064.762329 1505.916870,1099.310669 
	C1514.492798,1099.310669 1521.572998,1099.310669 1529.723877,1099.310669 
	C1530.625977,1078.187134 1529.469849,1057.676025 1530.422852,1036.647949 
	C1549.379639,1035.202393 1567.271484,1037.048218 1584.932495,1035.498535 
	C1584.932495,1028.373657 1584.932495,1022.630493 1584.932495,1015.673950 
	C1566.478882,1015.673950 1548.963989,1015.673950 1531.796875,1015.673950 
	C1529.389282,1005.579102 1529.497070,981.154846 1531.978027,972.170532 
	C1552.082764,971.990295 1572.530762,971.806946 1593.737183,971.616760 
	C1593.674927,963.747009 1595.510620,957.272217 1592.512573,951.107117 
	C1577.891357,948.858582 1513.453491,949.680420 1505.916504,952.449890 
	C1505.916504,966.405334 1505.916504,980.702698 1505.916870,997.000000 
M1962.234985,1103.521362 
	C1967.935425,1102.096802 1973.635986,1100.672241 1980.314087,1099.003418 
	C1978.490967,1092.684814 1976.985596,1087.467041 1975.442749,1082.119751 
	C1972.190796,1082.487671 1970.228882,1082.588623 1968.314941,1082.946045 
	C1955.855835,1085.273315 1948.229370,1079.430420 1948.017944,1066.635376 
	C1947.731689,1049.310059 1947.916992,1031.975830 1948.017700,1014.646179 
	C1948.028564,1012.782288 1948.820801,1010.922974 1949.355347,1008.607727 
	C1958.201660,1008.204346 1966.660767,1007.818542 1975.063843,1007.435303 
	C1975.063843,1000.456726 1975.063843,994.725830 1975.063843,988.634155 
	C1965.624756,988.188354 1957.174683,987.789246 1949.093384,987.407593 
	C1946.281982,977.107544 1950.011230,967.513184 1946.375366,958.747131 
	C1939.660889,958.747131 1933.519897,958.747131 1926.587402,958.747131 
	C1926.341675,964.109863 1926.366577,968.716003 1925.858032,973.262512 
	C1925.321289,978.059204 1924.275146,982.798828 1923.579468,986.824768 
	C1917.005127,988.442932 1911.928101,989.692505 1906.070312,991.134277 
	C1906.351074,997.007507 1906.594727,1002.101624 1906.835938,1007.148315 
	C1912.492188,1007.932434 1916.953247,1008.550903 1922.093262,1009.263489 
	C1922.093262,1023.150452 1921.830444,1036.124023 1922.181763,1049.080933 
	C1922.433350,1058.359009 1923.118164,1067.666504 1924.345459,1076.862793 
	C1925.232544,1083.510254 1928.316406,1089.290894 1933.093506,1094.431763 
	C1940.733765,1102.653442 1950.567749,1103.143799 1962.234985,1103.521362 
M2232.957520,1006.234680 
	C2233.913330,1002.040283 2235.088867,997.880798 2235.763672,993.641663 
	C2236.451416,989.319763 2234.478516,986.635925 2229.939697,986.103882 
	C2219.533936,984.884033 2210.031982,986.674255 2202.428223,994.508484 
	C2199.301270,997.730408 2196.366211,1001.139099 2193.042480,1004.794312 
	C2191.577148,998.970093 2190.312012,993.942505 2189.067871,988.997131 
	C2182.501953,988.997131 2176.754639,988.997131 2171.191895,988.997131 
	C2168.958252,1001.306580 2169.513672,1091.864868 2171.814941,1099.300293 
	C2178.810303,1100.329468 2185.902588,1100.947144 2194.082764,1098.453491 
	C2194.082764,1094.734863 2194.082764,1091.157959 2194.083008,1087.581055 
	C2194.083984,1071.290039 2194.475586,1054.986816 2193.971680,1038.711426 
	C2193.500488,1023.500061 2208.660400,1005.479065 2224.804688,1007.868652 
	C2227.026855,1008.197571 2229.394043,1007.546997 2232.957520,1006.234680 
M2464.082275,1003.183594 
	C2463.793213,998.388794 2463.504150,993.594055 2463.216553,988.822937 
	C2455.059814,988.822937 2448.227539,988.822937 2440.691162,988.822937 
	C2440.691162,1025.907837 2440.691162,1062.254883 2440.691162,1099.329956 
	C2448.493896,1099.329956 2455.562500,1099.329956 2464.082764,1099.329956 
	C2464.082764,1067.445923 2464.082764,1036.288940 2464.082275,1003.183594 
M1642.079346,1090.592163 
	C1642.080078,1079.276978 1642.081177,1067.961792 1642.081543,1056.646606 
	C1642.081909,1045.331421 1642.121460,1034.016235 1642.069946,1022.701233 
	C1642.019165,1011.535706 1641.875732,1000.370667 1641.771729,989.080444 
	C1633.175659,987.860779 1626.073853,987.178528 1619.164795,989.367126 
	C1616.949707,1001.129395 1617.510864,1091.949341 1620.090332,1100.041016 
	C1624.987549,1100.041016 1630.245850,1099.907837 1635.494385,1100.077759 
	C1640.988281,1100.255615 1642.335693,1097.130615 1642.079346,1090.592163 
M2463.295166,964.572937 
	C2468.818604,956.574402 2469.408203,951.790161 2465.515381,946.558838 
	C2461.010742,940.505249 2454.246338,938.370178 2446.980713,940.709229 
	C2440.097168,942.925232 2435.962646,949.302673 2437.084473,955.974060 
	C2438.297363,963.187134 2443.357666,968.026794 2450.627197,967.925110 
	C2454.459229,967.871582 2458.271484,966.436279 2463.295166,964.572937 
M1645.548828,950.158264 
	C1638.638550,939.789734 1631.345703,937.173462 1622.411499,941.857727 
	C1617.116699,944.633789 1614.122681,950.275940 1615.010620,955.804871 
	C1616.111572,962.659912 1620.906860,967.366089 1627.461304,968.024353 
	C1639.361084,969.219421 1645.099121,964.115784 1645.548828,950.158264 
z"/>
<path fill="#292929" opacity="1.000000" stroke="none" 
	d="
M668.000000,1284.078979 
	C555.795166,1284.079102 444.590332,1284.079102 332.640839,1284.079102 
	C332.339874,1279.427612 331.948151,1276.196533 331.947784,1272.965454 
	C331.921570,1029.979614 331.803162,786.993713 332.104065,544.008240 
	C332.136932,517.462830 339.460632,492.043579 350.165833,467.781982 
	C362.805023,439.137390 379.993347,413.470581 403.079895,392.220398 
	C436.156219,361.775085 474.527985,341.562744 519.188110,333.836334 
	C536.304993,330.874969 553.461914,330.019257 570.789124,330.026367 
	C804.108826,330.121948 1037.428589,330.090454 1270.748291,330.090454 
	C1275.313354,330.090454 1279.878296,330.090424 1285.181763,330.090424 
	C1285.483521,334.663605 1285.882446,337.889130 1285.882812,341.114716 
	C1285.911621,582.767273 1286.088013,824.420105 1285.652954,1066.071899 
	C1285.605469,1092.424194 1279.072021,1118.036255 1268.752563,1142.583496 
	C1258.847290,1166.145142 1245.740723,1187.422363 1228.749756,1206.594238 
	C1191.480225,1248.647705 1145.277222,1273.898438 1089.773193,1282.117188 
	C1081.916382,1283.280640 1073.912476,1283.989746 1065.975830,1283.996582 
	C933.650635,1284.110352 801.325317,1284.078369 668.000000,1284.078979 
M807.280212,504.117279 
	C803.352844,505.840942 799.221741,507.211182 795.527771,509.339874 
	C702.357239,563.029785 609.232727,616.799316 516.100220,670.555054 
	C514.658997,671.387024 513.239990,672.260193 511.776123,673.050171 
	C505.901398,676.220093 503.255157,681.200928 503.359070,687.792542 
	C503.406311,690.790344 503.321411,693.789978 503.321289,696.788818 
	C503.318512,770.431458 503.318237,844.074036 503.319580,917.716675 
	C503.319946,937.247192 503.304993,937.278687 520.425598,947.173950 
	C611.796448,999.984436 703.238098,1052.673218 794.464294,1105.732544 
	C804.009338,1111.284180 811.761597,1111.260620 821.291626,1105.768555 
	C914.459045,1052.077515 1007.781250,998.654175 1101.203369,945.407349 
	C1110.040527,940.370544 1113.888306,934.159729 1113.848511,923.843811 
	C1113.551025,846.536865 1113.566528,769.227844 1113.840454,691.920715 
	C1113.875244,682.103577 1110.559082,675.916687 1101.966187,670.980957 
	C1008.144470,617.089539 914.492126,562.903198 820.736511,508.896545 
	C817.070129,506.784607 812.828308,505.671722 807.280212,504.117279 
z"/>
<path fill="#292929" opacity="1.000000" stroke="none" 
	d="
M1686.757812,696.870300 
	C1681.863159,710.081421 1677.015747,722.488708 1672.770386,735.098755 
	C1670.946655,740.515625 1667.843140,742.328857 1662.423828,742.146912 
	C1654.103271,741.867615 1645.766235,742.098145 1637.436401,742.073608 
	C1627.147461,742.043335 1626.988525,742.086365 1623.214844,732.107605 
	C1617.564575,717.166382 1612.027344,702.179138 1606.684692,687.125366 
	C1594.884155,653.875671 1583.241211,620.570190 1571.507690,587.296692 
	C1570.893799,585.556091 1570.037964,583.900757 1567.753174,582.609680 
	C1568.667603,592.467224 1569.567627,602.326111 1570.499146,612.182007 
	C1572.340210,631.661072 1575.180908,651.106445 1575.816406,670.624146 
	C1576.737671,698.916321 1576.087158,727.260254 1576.055054,755.582153 
	C1576.051758,758.510620 1575.695679,761.438721 1575.413330,765.735901 
	C1552.490479,766.366272 1530.078857,766.114136 1507.969116,765.897766 
	C1505.509644,757.716858 1504.974976,482.775879 1507.289062,470.660889 
	C1510.196045,470.429810 1513.390747,469.965912 1516.586670,469.955841 
	C1537.578003,469.889771 1558.569580,469.895233 1579.561157,469.933136 
	C1589.525269,469.951111 1590.028320,470.201538 1593.394531,479.322723 
	C1603.187134,505.858673 1612.637695,532.522766 1622.639648,558.978943 
	C1631.942627,583.586304 1640.288208,608.477417 1647.053833,633.900269 
	C1647.628906,636.061401 1648.647461,638.104431 1650.433472,642.715088 
	C1652.443604,637.067383 1653.746704,633.591248 1654.922852,630.072693 
	C1665.784912,597.574158 1676.551636,565.043518 1687.500732,532.574402 
	C1693.457275,514.910645 1699.758179,497.363342 1705.816772,479.733643 
	C1709.432251,469.213074 1708.498535,469.944763 1719.842529,469.929108 
	C1740.500854,469.900574 1761.159302,469.895020 1781.817383,469.945923 
	C1785.377930,469.954712 1788.937622,470.290375 1793.182129,470.510559 
	C1793.182129,569.113220 1793.182129,666.835327 1793.182129,765.319458 
	C1769.684448,765.319458 1746.860718,765.319458 1722.846558,765.319458 
	C1720.896851,745.191711 1721.975464,724.996521 1722.058472,704.875671 
	C1722.140747,684.942261 1722.694824,664.974365 1724.071777,645.092957 
	C1725.466553,624.953796 1728.122314,604.901978 1728.946899,584.249512 
	C1728.022705,585.570007 1726.752686,586.765869 1726.225220,588.229309 
	C1716.296265,615.782532 1706.491699,643.380493 1696.573975,670.937683 
	C1693.532227,679.389343 1690.231323,687.747620 1686.757812,696.870300 
M1731.312256,578.286316 
	C1731.173218,578.373962 1731.034180,578.461609 1731.312256,578.286316 
z"/>
<path fill="#292929" opacity="1.000000" stroke="none" 
	d="
M3258.009277,469.919800 
	C3273.005371,469.920715 3287.008789,470.160126 3300.997070,469.808472 
	C3306.801514,469.662567 3310.039795,471.708099 3312.615479,476.921967 
	C3332.836182,517.853333 3353.656982,558.491760 3373.541992,599.583801 
	C3382.518311,618.132690 3389.774414,637.513489 3397.850586,656.500061 
	C3398.424805,657.850342 3399.323975,659.062317 3401.841309,659.998169 
	C3401.841309,656.200378 3402.203613,652.361877 3401.781494,648.611572 
	C3399.369873,627.184753 3396.641113,605.793030 3394.319824,584.356934 
	C3393.676758,578.419678 3393.983887,572.371948 3393.975342,566.374756 
	C3393.934082,537.713623 3393.916992,509.052460 3393.945801,480.391388 
	C3393.948730,477.464661 3394.313965,474.538239 3394.495117,471.849457 
	C3402.589111,469.423615 3458.708496,469.126770 3468.327393,471.269409 
	C3470.425781,479.041840 3470.653320,755.097778 3468.416504,765.167847 
	C3466.102295,765.451538 3463.551025,766.027161 3460.997559,766.035950 
	C3439.668701,766.109680 3418.335205,765.843018 3397.012695,766.219543 
	C3390.356201,766.337158 3386.813477,763.935120 3383.941895,758.033569 
	C3362.953857,714.896606 3341.450928,672.009399 3320.592529,628.810486 
	C3313.075439,613.242371 3306.890137,597.031738 3300.076416,581.123047 
	C3298.795410,578.132507 3297.417969,575.183289 3294.399902,572.540405 
	C3295.095459,580.432922 3295.712891,588.333191 3296.502197,596.216309 
	C3298.319824,614.369263 3300.109619,632.526184 3302.112305,650.659180 
	C3305.891602,684.876770 3302.999268,719.199646 3303.901855,753.460938 
	C3303.996582,757.051208 3303.914795,760.646057 3303.914795,763.867554 
	C3295.578613,766.578491 3239.615479,766.955505 3229.662842,764.725464 
	C3227.567383,756.905273 3227.357910,480.825073 3229.764893,470.063202 
	C3238.605713,470.016693 3247.808105,469.968323 3258.009277,469.919800 
M3402.932129,666.451355 
	C3402.823242,666.339539 3402.714600,666.227722 3402.932129,666.451355 
z"/>
<path fill="#292929" opacity="1.000000" stroke="none" 
	d="
M2326.000000,766.081421 
	C2295.791260,766.081543 2266.582520,766.081543 2236.658691,766.081543 
	C2236.658691,666.880798 2236.658691,569.155640 2236.658691,470.744324 
	C2240.188965,470.433105 2243.083984,469.956177 2245.978760,469.956329 
	C2283.299316,469.958374 2320.639893,469.309326 2357.933105,470.346588 
	C2380.892578,470.985168 2403.399414,475.466095 2424.377441,486.015228 
	C2442.033936,494.894104 2450.651855,509.413940 2454.115967,528.237122 
	C2458.772949,553.543945 2451.956055,575.684509 2436.189453,595.213196 
	C2431.962402,600.448792 2425.604736,603.964355 2419.420166,608.914124 
	C2421.415039,609.960693 2423.474854,611.168701 2425.635742,612.155151 
	C2445.651855,621.292786 2461.678467,634.818970 2466.281250,657.053162 
	C2472.465576,686.926208 2470.017578,715.506226 2445.335449,737.669434 
	C2433.232666,748.537170 2418.770996,755.288818 2403.231445,759.732300 
	C2387.152100,764.330200 2370.834229,767.018982 2353.987305,766.161682 
	C2345.013428,765.705017 2335.997070,766.081116 2326.000000,766.081421 
M2315.911621,684.939819 
	C2316.000732,691.484741 2316.089600,698.029663 2316.197021,705.924622 
	C2327.987305,705.924622 2338.592041,706.574829 2349.073975,705.720215 
	C2357.569824,705.027527 2366.205566,703.369263 2374.261230,700.620544 
	C2385.104004,696.920776 2392.348877,684.500488 2391.877930,673.083801 
	C2391.392334,661.318359 2384.244141,651.466187 2372.468262,647.952942 
	C2365.538086,645.885437 2358.223145,644.528381 2351.009766,644.124451 
	C2339.829834,643.498291 2328.588867,643.959106 2316.157227,643.959106 
	C2316.069580,657.866028 2315.990479,670.410706 2315.911621,684.939819 
M2327.226318,530.075134 
	C2323.731445,530.343201 2320.236572,530.611328 2316.165771,530.923584 
	C2316.161621,549.765869 2314.916748,567.473877 2316.895264,585.545898 
	C2331.278320,586.136536 2344.511963,586.837463 2357.562500,583.660767 
	C2370.268799,580.567871 2378.161133,569.858521 2377.911377,556.427795 
	C2377.689453,544.494568 2369.030518,534.150208 2356.788330,532.368347 
	C2347.643555,531.037476 2338.340088,530.799683 2327.226318,530.075134 
z"/>
<path fill="#292929" opacity="1.000000" stroke="none" 
	d="
M2502.084717,631.629150 
	C2501.144287,607.962891 2502.561035,585.500183 2508.049316,563.321838 
	C2516.185547,530.441040 2534.579102,504.596344 2562.127686,485.528870 
	C2576.451660,475.614746 2592.898193,469.984283 2610.184326,466.857086 
	C2635.857422,462.212524 2661.202637,463.094910 2686.053711,471.052765 
	C2726.161377,483.896118 2753.536377,510.434082 2767.511719,550.036133 
	C2777.843750,579.314941 2779.958252,609.639099 2776.549805,640.531982 
	C2774.899414,655.491760 2772.718506,670.227539 2767.581299,684.374878 
	C2751.356201,729.059021 2720.520020,758.254150 2673.967529,768.643555 
	C2641.839600,775.813782 2609.639160,774.031128 2579.230957,759.899292 
	C2554.708252,748.502563 2535.623535,730.826355 2522.462158,707.016541 
	C2512.014404,688.115662 2505.880859,667.891785 2503.819336,646.403198 
	C2503.376221,641.784668 2502.670898,637.191406 2502.084717,631.629150 
M2646.065186,703.820068 
	C2659.547852,701.650208 2670.807617,695.204346 2678.397217,684.055542 
	C2683.756836,676.182617 2688.684814,667.417664 2691.214355,658.329773 
	C2698.467285,632.272156 2698.290771,605.785767 2692.278076,579.383362 
	C2688.989014,564.941406 2682.033447,552.444702 2670.335449,543.422913 
	C2648.280518,526.413757 2622.131592,529.398438 2603.518799,548.354248 
	C2593.943848,558.105530 2587.711914,570.911682 2586.229248,584.832764 
	C2584.685059,599.330933 2584.572021,613.984497 2583.924316,628.574219 
	C2583.384277,640.741882 2585.971924,652.422729 2590.209717,663.706848 
	C2599.734619,689.068787 2617.836426,705.824890 2646.065186,703.820068 
z"/>
<path fill="#292929" opacity="1.000000" stroke="none" 
	d="
M1937.917236,572.295288 
	C1937.917847,574.399292 1937.917847,575.720764 1937.917847,578.036499 
	C1942.271240,576.045776 1944.123291,572.697449 1946.196045,569.630554 
	C1966.709595,539.278870 1987.372070,509.025330 2007.566772,478.462769 
	C2011.702271,472.204071 2016.045776,469.525696 2023.735229,469.724701 
	C2045.386230,470.284943 2067.061035,469.920563 2088.726318,469.920715 
	C2091.694336,469.920715 2094.662354,469.920715 2099.168213,469.920715 
	C2097.152344,473.481720 2096.009521,476.082703 2094.366211,478.315338 
	C2069.317871,512.349060 2044.199219,546.330933 2019.109253,580.334106 
	C2012.239502,589.644287 2012.293945,591.394226 2018.541992,601.754639 
	C2050.001221,653.920410 2081.424316,706.107971 2112.803223,758.322021 
	C2113.920654,760.181213 2114.443359,762.397827 2115.560791,765.262268 
	C2112.088867,765.593933 2109.544434,766.042053 2106.998779,766.048218 
	C2084.333496,766.103149 2061.666504,765.927612 2039.003906,766.182556 
	C2033.014771,766.249939 2029.359985,764.465088 2026.276733,758.989929 
	C2008.638428,727.667114 1990.599243,696.569763 1972.642578,665.426697 
	C1970.855835,662.327759 1968.707886,659.437073 1966.368408,655.908081 
	C1964.441284,657.273438 1962.804321,657.924011 1961.935669,659.128662 
	C1954.540405,669.384277 1947.030762,679.576050 1940.157837,690.177429 
	C1938.338379,692.983643 1938.052246,697.137207 1938.010986,700.683105 
	C1937.805054,718.346313 1937.915527,736.013184 1937.914673,753.678772 
	C1937.914551,757.253052 1937.914673,760.827332 1937.914673,764.024536 
	C1929.570557,766.433228 1873.491333,767.048401 1858.925537,765.052429 
	C1858.658447,761.188538 1858.123779,757.042419 1858.121582,752.896057 
	C1858.073608,662.901489 1858.085205,572.906921 1858.085205,482.912384 
	C1858.085205,479.286652 1858.085205,475.660919 1858.085205,472.373016 
	C1865.540039,469.493958 1923.397461,468.734467 1937.478271,471.276428 
	C1938.443726,482.093597 1937.763428,493.332214 1937.888062,504.517487 
	C1938.010620,515.515442 1937.914429,526.515869 1937.914795,537.515198 
	C1937.915039,548.847717 1937.916138,560.180237 1937.917236,572.295288 
z"/>
<path fill="#292929" opacity="1.000000" stroke="none" 
	d="
M3745.627441,529.660034 
	C3738.666504,538.117920 3732.157715,546.029663 3725.333740,554.324341 
	C3719.031494,550.083435 3713.634521,546.331299 3708.120361,542.760559 
	C3676.049316,521.993469 3631.476318,533.608276 3613.967285,567.926208 
	C3603.520508,588.402161 3599.841309,609.959595 3603.632812,632.691406 
	C3604.994873,640.859009 3605.755859,649.232300 3608.133057,657.106628 
	C3617.488281,688.094238 3641.794434,702.812866 3671.690674,703.773865 
	C3679.568604,704.027161 3687.568848,702.819397 3695.377441,701.488770 
	C3697.721436,701.089294 3701.333252,698.083435 3701.422119,696.137085 
	C3701.979004,683.949646 3701.703369,671.724365 3701.703369,658.315918 
	C3686.997803,658.315918 3673.495605,658.315918 3660.433350,658.315918 
	C3657.674561,650.296509 3657.055420,608.086182 3659.113770,595.855530 
	C3666.032471,593.473022 3759.123291,592.894165 3771.224854,595.368469 
	C3771.443115,598.292480 3771.887451,601.499634 3771.891357,604.707275 
	C3771.938477,645.358643 3771.750000,686.011536 3772.081543,726.660278 
	C3772.140625,733.899109 3769.474121,738.739746 3763.990723,742.657104 
	C3743.901123,757.009460 3721.919678,766.556641 3697.305176,770.172302 
	C3663.163330,775.187439 3630.178955,771.425049 3598.863525,757.033691 
	C3574.382568,745.783203 3555.018066,728.273926 3541.397461,704.783813 
	C3528.774658,683.014282 3522.823486,659.325806 3522.026367,634.359497 
	C3521.410645,615.072266 3521.189941,595.732117 3526.015137,576.799011 
	C3536.637695,535.117859 3559.178955,502.570312 3597.816650,481.941071 
	C3620.372070,469.898468 3644.396973,464.431427 3669.695557,464.143005 
	C3700.751465,463.788940 3728.487305,473.733582 3753.181641,492.357544 
	C3757.597656,495.688110 3761.691650,499.445740 3766.808350,503.739685 
	C3759.429443,512.772339 3752.754395,520.943115 3745.627441,529.660034 
z"/>
<path fill="#292929" opacity="1.000000" stroke="none" 
	d="
M2826.007324,469.920288 
	C2844.624512,469.920166 2862.243652,469.920166 2880.604004,469.920166 
	C2894.134277,501.953278 2907.491455,533.576965 2921.697021,567.208618 
	C2923.713379,562.663635 2924.854004,560.407227 2925.736816,558.054077 
	C2935.674316,531.573425 2945.535889,505.064270 2955.501709,478.594360 
	C2958.728027,470.023987 2958.840088,469.965271 2967.518799,469.941864 
	C2989.510010,469.882629 3011.501221,469.905823 3033.492432,469.948669 
	C3035.778320,469.953125 3038.063477,470.310791 3041.958740,470.641083 
	C3040.282715,474.581390 3039.113525,477.843994 3037.557373,480.910156 
	C3016.149170,523.085693 2994.864746,565.326172 2973.076904,607.305115 
	C2969.150635,614.870117 2968.723633,620.800537 2972.976562,628.465149 
	C2994.290283,666.875854 3015.069824,705.583557 3035.955322,744.231079 
	C3039.400635,750.606628 3042.439697,757.201660 3046.140869,764.649597 
	C3042.948730,765.262512 3040.840332,766.012451 3038.729004,766.019958 
	C3014.738770,766.104858 2990.745850,765.894958 2966.759521,766.206055 
	C2960.782715,766.283569 2957.677002,763.979431 2955.425781,758.750366 
	C2942.927734,729.719788 2930.249023,700.766907 2917.584717,671.808228 
	C2916.838623,670.101746 2915.680420,668.575562 2913.963379,665.715271 
	C2909.710693,676.070557 2905.960205,685.134277 2902.262939,694.219849 
	C2893.483643,715.796021 2884.626465,737.341797 2876.047363,758.997559 
	C2874.251465,763.530457 2872.097900,766.187378 2866.757324,766.144897 
	C2843.101807,765.956970 2819.443848,766.069031 2795.786865,766.000610 
	C2794.216553,765.996033 2792.647949,765.393738 2789.705811,764.785828 
	C2791.251465,760.958618 2792.283203,757.603088 2793.891602,754.551819 
	C2803.827148,735.708435 2813.943848,716.960693 2823.902344,698.129395 
	C2837.286133,672.820740 2850.387939,647.359802 2864.054932,622.205688 
	C2867.339844,616.159485 2866.991211,611.413269 2863.873291,605.585815 
	C2841.258789,563.321472 2818.884766,520.928284 2796.493652,478.544800 
	C2795.461426,476.591309 2794.992676,474.340118 2793.863281,471.076019 
	C2804.709473,468.907349 2814.927979,470.390289 2826.007324,469.920288 
z"/>
<path fill="#282828" opacity="1.000000" stroke="none" 
	d="
M3084.084229,484.217834 
	C3084.084229,479.342072 3084.084229,475.435181 3084.084229,470.115631 
	C3111.092285,469.751343 3136.787109,469.967987 3163.204590,469.936371 
	C3163.204590,569.104858 3163.204590,666.781799 3163.204590,764.291504 
	C3155.439209,766.413757 3098.982666,766.983765 3084.925049,765.051941 
	C3084.657715,761.191956 3084.122803,757.049805 3084.120361,752.907349 
	C3084.072021,666.997009 3084.083740,581.086670 3084.083740,495.176331 
	C3084.083740,491.846466 3084.084229,488.516602 3084.084229,484.217834 
z"/>
<path fill="#282828" opacity="1.000000" stroke="none" 
	d="
M1757.972412,1022.837524 
	C1758.049927,1052.126709 1736.694946,1069.859741 1708.777222,1064.616943 
	C1707.147583,1064.310913 1705.490112,1064.134155 1703.838501,1063.968506 
	C1698.983765,1063.481934 1696.424561,1066.295288 1695.013428,1070.421875 
	C1693.466553,1074.945557 1695.332642,1078.731323 1699.304688,1080.365845 
	C1703.813599,1082.221191 1708.810913,1083.447144 1713.672852,1083.762939 
	C1721.959961,1084.301392 1730.317627,1083.663696 1738.625366,1084.009155 
	C1743.893433,1084.228271 1749.259521,1084.813843 1754.348022,1086.134888 
	C1771.052856,1090.471802 1778.762329,1107.590210 1771.489136,1123.175293 
	C1767.530884,1131.656860 1761.412476,1138.283691 1753.160034,1142.180298 
	C1730.380737,1152.936279 1707.195679,1153.509277 1683.671875,1143.975342 
	C1668.270386,1137.733398 1661.968872,1116.129517 1677.135254,1101.864502 
	C1679.041992,1100.071167 1680.997925,1098.330078 1682.895874,1096.596924 
	C1670.842651,1080.351318 1671.114746,1075.936646 1685.524780,1055.757568 
	C1684.494141,1054.376099 1683.425659,1052.770630 1682.186279,1051.310181 
	C1671.801025,1039.073486 1669.046631,1025.388184 1674.928955,1010.390503 
	C1680.957642,995.019836 1693.910645,988.582947 1709.030640,986.299988 
	C1715.437988,985.332581 1722.215820,986.937439 1728.832031,987.203613 
	C1738.122559,987.577515 1747.418335,987.837524 1756.714111,988.058105 
	C1761.280396,988.166565 1765.851440,988.076904 1771.238281,988.076904 
	C1771.238281,994.408386 1771.238281,999.470032 1771.238281,1005.479187 
	C1765.277588,1005.835815 1759.757935,1006.166016 1753.518066,1006.539307 
	C1755.077393,1012.018799 1756.494507,1016.998901 1757.972412,1022.837524 
M1704.966797,1102.653198 
	C1696.383911,1102.795898 1691.402832,1106.534180 1690.105469,1113.807007 
	C1688.742188,1121.449463 1691.694580,1127.594238 1699.389893,1130.472290 
	C1713.282593,1135.667969 1727.236572,1136.149902 1740.676880,1128.661987 
	C1747.536377,1124.840332 1751.179810,1118.200562 1749.707642,1112.523193 
	C1748.407837,1107.510742 1743.330811,1104.361450 1735.389771,1104.031128 
	C1729.760376,1103.796875 1724.113037,1104.027710 1718.477661,1103.890015 
	C1714.516602,1103.793457 1710.562012,1103.426392 1704.966797,1102.653198 
M1695.952759,1028.556396 
	C1696.006348,1029.548340 1695.939331,1030.564453 1696.132202,1031.528564 
	C1698.567871,1043.705444 1706.739258,1049.305542 1720.178101,1048.048706 
	C1729.119385,1047.212524 1735.720703,1039.083496 1736.043579,1028.396606 
	C1736.123535,1025.753052 1736.161865,1023.076233 1735.850464,1020.458679 
	C1734.734375,1011.079712 1727.360596,1004.413879 1717.758667,1003.912842 
	C1706.686401,1003.335083 1698.250854,1009.147705 1696.335327,1018.923584 
	C1695.832275,1021.491577 1696.045410,1024.199951 1695.952759,1028.556396 
z"/>
<path fill="#282828" opacity="1.000000" stroke="none" 
	d="
M2408.350586,1053.960083 
	C2400.869385,1084.159180 2372.510010,1101.284546 2345.277588,1100.161743 
	C2333.967041,1099.695435 2322.620850,1100.126221 2311.291504,1100.058228 
	C2308.052979,1100.038696 2304.816406,1099.700928 2300.135498,1099.423462 
	C2300.017578,1049.878662 2300.103760,1001.060364 2300.075439,953.014343 
	C2301.366455,951.778564 2301.841797,950.925842 2302.318115,950.925232 
	C2318.247803,950.904785 2334.177734,950.941467 2350.106934,951.051636 
	C2351.744385,951.063049 2353.367676,951.715942 2355.015625,951.850769 
	C2380.890869,953.968689 2404.303223,972.943909 2409.722412,1000.820984 
	C2413.128906,1018.344116 2413.369873,1035.824707 2408.350586,1053.960083 
M2369.676025,1070.911011 
	C2377.799805,1064.351196 2383.060059,1055.828491 2384.304688,1045.607666 
	C2385.582520,1035.112305 2386.579346,1024.366455 2385.783936,1013.875488 
	C2383.419678,982.701355 2363.110840,966.586365 2327.235840,971.694702 
	C2325.154541,981.324402 2325.443848,1071.244385 2327.736328,1079.334473 
	C2342.044678,1081.289795 2355.927734,1080.421875 2369.676025,1070.911011 
z"/>
<path fill="#282828" opacity="1.000000" stroke="none" 
	d="
M2682.052734,993.958069 
	C2682.052734,976.022583 2682.052734,958.087097 2682.052734,940.023071 
	C2689.818359,936.832336 2696.962402,938.115601 2703.961670,938.696838 
	C2706.498047,945.757080 2707.421631,1082.963379 2705.005371,1099.061523 
	C2699.452881,1099.061523 2693.722412,1099.061523 2687.305420,1099.061523 
	C2686.517334,1096.620605 2685.641113,1093.906982 2684.609619,1090.711914 
	C2683.133789,1091.089111 2681.781738,1091.147949 2680.742188,1091.748413 
	C2675.301025,1094.891479 2670.278076,1099.084106 2664.487305,1101.236206 
	C2645.996094,1108.107544 2623.483398,1099.732178 2613.554932,1080.977783 
	C2603.608887,1062.190796 2599.775635,1022.761902 2621.387207,1000.296265 
	C2634.331299,986.840698 2650.382568,981.499207 2669.634766,988.934448 
	C2673.343750,990.366821 2676.877197,992.252808 2681.315918,994.213989 
	C2682.140381,994.498352 2682.779541,994.494812 2682.779541,994.494812 
	C2682.779541,994.494812 2682.052734,993.958069 2682.052734,993.958069 
M2668.558594,1007.878601 
	C2655.393555,1002.199341 2640.436279,1009.484924 2634.897705,1024.241455 
	C2630.281982,1036.539307 2630.437988,1049.366821 2633.212402,1061.616089 
	C2637.243896,1079.415161 2648.104980,1084.028198 2664.412598,1081.781128 
	C2674.446289,1080.398682 2682.037109,1071.291748 2682.064453,1061.406128 
	C2682.095459,1050.081543 2681.481201,1038.716675 2682.249023,1027.444214 
	C2682.922852,1017.554810 2679.074951,1011.563049 2668.558594,1007.878601 
z"/>
<path fill="#282828" opacity="1.000000" stroke="none" 
	d="
M1836.548462,1008.120483 
	C1831.112915,1011.440186 1826.352417,1014.452148 1821.733521,1017.667603 
	C1817.972656,1020.285889 1817.897949,1024.330688 1817.908813,1028.431396 
	C1817.961182,1048.070435 1817.930786,1067.709839 1817.929932,1087.349121 
	C1817.929810,1090.948242 1817.929932,1094.547363 1817.929932,1098.270020 
	C1809.940552,1101.127319 1802.841064,1100.241699 1795.846191,1099.327881 
	C1793.517090,1091.973389 1792.904663,951.516968 1795.032349,939.897339 
	C1802.342041,937.565979 1806.965454,937.435913 1817.403564,939.537354 
	C1817.403564,958.719788 1817.403564,978.196411 1817.403564,1000.026306 
	C1821.606323,997.530640 1824.054932,996.346008 1826.201416,994.754211 
	C1834.213501,988.812256 1843.002563,985.693787 1853.114868,985.860596 
	C1872.011230,986.172302 1883.096802,995.278015 1885.793823,1014.013611 
	C1887.065796,1022.848816 1887.654907,1031.833130 1887.832520,1040.764160 
	C1888.150024,1056.735474 1887.950439,1072.717896 1887.897949,1088.695312 
	C1887.887207,1091.944214 1887.571167,1095.192139 1887.352905,1099.239624 
	C1878.944702,1099.239624 1871.238403,1099.239624 1862.662476,1099.239624 
	C1862.444336,1095.084961 1862.104614,1091.524414 1862.095459,1087.963013 
	C1862.042480,1067.325439 1862.248413,1046.685303 1862.005737,1026.050293 
	C1861.830688,1011.177307 1851.904175,1004.094177 1836.548462,1008.120483 
z"/>
<path fill="#282828" opacity="1.000000" stroke="none" 
	d="
M2069.582520,1098.839722 
	C2047.639648,1088.374268 2038.730591,1070.734497 2037.904053,1048.018799 
	C2037.208374,1028.898071 2041.664551,1011.886292 2056.396240,998.472107 
	C2073.235596,983.138733 2101.780029,981.688904 2120.111816,994.935974 
	C2140.966309,1010.005981 2145.402100,1031.180298 2143.184326,1054.839722 
	C2141.970947,1067.784668 2136.749023,1079.010498 2127.067383,1088.153931 
	C2110.376953,1103.916504 2091.566162,1107.685059 2069.582520,1098.839722 
M2078.699951,1008.959839 
	C2073.035156,1013.220764 2068.154541,1018.040894 2065.913574,1025.083374 
	C2061.538086,1038.833252 2061.406494,1052.453735 2066.979492,1065.884521 
	C2070.780029,1075.044189 2076.718018,1081.315552 2087.514648,1082.193237 
	C2099.724609,1083.185791 2107.980957,1078.186279 2113.325195,1067.543335 
	C2119.816650,1054.614624 2119.377197,1041.146729 2115.899902,1027.674927 
	C2111.316162,1009.918030 2097.772461,1002.773071 2078.699951,1008.959839 
z"/>
<path fill="#282828" opacity="1.000000" stroke="none" 
	d="
M2501.531494,1082.222656 
	C2494.110352,1071.446167 2490.707764,1059.724121 2490.454834,1047.813232 
	C2489.969482,1024.978027 2497.851318,1005.434265 2517.730713,992.281372 
	C2531.600098,983.104980 2557.322754,983.484192 2569.700195,993.687927 
	C2577.782471,1000.350891 2582.836426,1008.937073 2585.394287,1018.537903 
	C2587.495605,1026.423950 2587.656250,1034.942871 2587.810791,1043.197510 
	C2587.949951,1050.631836 2586.500732,1051.787109 2578.921143,1051.860107 
	C2561.946777,1052.023682 2544.969727,1051.891602 2527.993896,1051.945068 
	C2524.418701,1051.956421 2520.844482,1052.247559 2515.875000,1052.472900 
	C2516.653320,1056.884155 2516.671631,1060.505127 2517.944580,1063.612061 
	C2524.425537,1079.430298 2541.489258,1087.585938 2558.174316,1082.796021 
	C2563.836182,1081.170776 2569.227295,1078.602173 2574.328125,1076.625000 
	C2575.202881,1077.059692 2575.608643,1077.128662 2575.783936,1077.367188 
	C2585.254150,1090.266479 2584.257324,1092.790894 2569.726562,1098.528931 
	C2551.204346,1105.843140 2533.346924,1105.461182 2516.298584,1095.014526 
	C2511.014893,1091.776733 2506.725098,1086.916748 2501.531494,1082.222656 
M2527.277100,1009.952026 
	C2520.067627,1015.908447 2515.747314,1023.312805 2515.248291,1032.809326 
	C2527.222656,1034.805054 2558.148438,1034.313110 2565.059570,1032.113647 
	C2567.047607,1017.568298 2560.230957,1008.143433 2546.554199,1005.554321 
	C2539.856201,1004.286255 2534.130859,1006.023132 2527.277100,1009.952026 
z"/>
<path fill="#282828" opacity="1.000000" stroke="none" 
	d="
M1505.916748,996.000000 
	C1505.916504,980.702698 1505.916504,966.405334 1505.916504,952.449890 
	C1513.453491,949.680420 1577.891357,948.858582 1592.512573,951.107117 
	C1595.510620,957.272217 1593.674927,963.747009 1593.737183,971.616760 
	C1572.530762,971.806946 1552.082764,971.990295 1531.978027,972.170532 
	C1529.497070,981.154846 1529.389282,1005.579102 1531.796875,1015.673950 
	C1548.963989,1015.673950 1566.478882,1015.673950 1584.932495,1015.673950 
	C1584.932495,1022.630493 1584.932495,1028.373657 1584.932495,1035.498535 
	C1567.271484,1037.048218 1549.379639,1035.202393 1530.422852,1036.647949 
	C1529.469849,1057.676025 1530.625977,1078.187134 1529.723877,1099.310669 
	C1521.572998,1099.310669 1514.492798,1099.310669 1505.916870,1099.310669 
	C1505.916870,1064.762329 1505.916870,1030.881226 1505.916748,996.000000 
z"/>
<path fill="#282828" opacity="1.000000" stroke="none" 
	d="
M1961.394287,1103.648926 
	C1950.567749,1103.143799 1940.733765,1102.653442 1933.093506,1094.431763 
	C1928.316406,1089.290894 1925.232544,1083.510254 1924.345459,1076.862793 
	C1923.118164,1067.666504 1922.433350,1058.359009 1922.181763,1049.080933 
	C1921.830444,1036.124023 1922.093262,1023.150452 1922.093262,1009.263489 
	C1916.953247,1008.550903 1912.492188,1007.932434 1906.835938,1007.148315 
	C1906.594727,1002.101624 1906.351074,997.007507 1906.070312,991.134277 
	C1911.928101,989.692505 1917.005127,988.442932 1923.579468,986.824768 
	C1924.275146,982.798828 1925.321289,978.059204 1925.858032,973.262512 
	C1926.366577,968.716003 1926.341675,964.109863 1926.587402,958.747131 
	C1933.519897,958.747131 1939.660889,958.747131 1946.375366,958.747131 
	C1950.011230,967.513184 1946.281982,977.107544 1949.093384,987.407593 
	C1957.174683,987.789246 1965.624756,988.188354 1975.063843,988.634155 
	C1975.063843,994.725830 1975.063843,1000.456726 1975.063843,1007.435303 
	C1966.660767,1007.818542 1958.201660,1008.204346 1949.355347,1008.607727 
	C1948.820801,1010.922974 1948.028564,1012.782288 1948.017700,1014.646179 
	C1947.916992,1031.975830 1947.731689,1049.310059 1948.017944,1066.635376 
	C1948.229370,1079.430420 1955.855835,1085.273315 1968.314941,1082.946045 
	C1970.228882,1082.588623 1972.190796,1082.487671 1975.442749,1082.119751 
	C1976.985596,1087.467041 1978.490967,1092.684814 1980.314087,1099.003418 
	C1973.635986,1100.672241 1967.935425,1102.096802 1961.394287,1103.648926 
z"/>
<path fill="#282828" opacity="1.000000" stroke="none" 
	d="
M2232.325684,1006.792358 
	C2229.394043,1007.546997 2227.026855,1008.197571 2224.804688,1007.868652 
	C2208.660400,1005.479065 2193.500488,1023.500061 2193.971680,1038.711426 
	C2194.475586,1054.986816 2194.083984,1071.290039 2194.083008,1087.581055 
	C2194.082764,1091.157959 2194.082764,1094.734863 2194.082764,1098.453491 
	C2185.902588,1100.947144 2178.810303,1100.329468 2171.814941,1099.300293 
	C2169.513672,1091.864868 2168.958252,1001.306580 2171.191895,988.997131 
	C2176.754639,988.997131 2182.501953,988.997131 2189.067871,988.997131 
	C2190.312012,993.942505 2191.577148,998.970093 2193.042480,1004.794312 
	C2196.366211,1001.139099 2199.301270,997.730408 2202.428223,994.508484 
	C2210.031982,986.674255 2219.533936,984.884033 2229.939697,986.103882 
	C2234.478516,986.635925 2236.451416,989.319763 2235.763672,993.641663 
	C2235.088867,997.880798 2233.913330,1002.040283 2232.325684,1006.792358 
z"/>
<path fill="#292929" opacity="1.000000" stroke="none" 
	d="
M2464.082520,1004.157715 
	C2464.082764,1036.288940 2464.082764,1067.445923 2464.082764,1099.329956 
	C2455.562500,1099.329956 2448.493896,1099.329956 2440.691162,1099.329956 
	C2440.691162,1062.254883 2440.691162,1025.907837 2440.691162,988.822937 
	C2448.227539,988.822937 2455.059814,988.822937 2463.216553,988.822937 
	C2463.504150,993.594055 2463.793213,998.388794 2464.082520,1004.157715 
z"/>
<path fill="#292929" opacity="1.000000" stroke="none" 
	d="
M1642.074585,1091.532715 
	C1642.335693,1097.130615 1640.988281,1100.255615 1635.494385,1100.077759 
	C1630.245850,1099.907837 1624.987549,1100.041016 1620.090332,1100.041016 
	C1617.510864,1091.949341 1616.949707,1001.129395 1619.164795,989.367126 
	C1626.073853,987.178528 1633.175659,987.860779 1641.771729,989.080444 
	C1641.875732,1000.370667 1642.019165,1011.535706 1642.069946,1022.701233 
	C1642.121460,1034.016235 1642.081909,1045.331421 1642.081543,1056.646606 
	C1642.081177,1067.961792 1642.080078,1079.276978 1642.074585,1091.532715 
z"/>
<path fill="#282828" opacity="1.000000" stroke="none" 
	d="
M2462.693848,965.098877 
	C2458.271484,966.436279 2454.459229,967.871582 2450.627197,967.925110 
	C2443.357666,968.026794 2438.297363,963.187134 2437.084473,955.974060 
	C2435.962646,949.302673 2440.097168,942.925232 2446.980713,940.709229 
	C2454.246338,938.370178 2461.010742,940.505249 2465.515381,946.558838 
	C2469.408203,951.790161 2468.818604,956.574402 2462.693848,965.098877 
z"/>
<path fill="#282828" opacity="1.000000" stroke="none" 
	d="
M1645.677490,950.933105 
	C1645.099121,964.115784 1639.361084,969.219421 1627.461304,968.024353 
	C1620.906860,967.366089 1616.111572,962.659912 1615.010620,955.804871 
	C1614.122681,950.275940 1617.116699,944.633789 1622.411499,941.857727 
	C1631.345703,937.173462 1638.638550,939.789734 1645.677490,950.933105 
z"/>
<path fill="#FCFCFC" opacity="1.000000" stroke="none" 
	d="
M808.067383,504.105286 
	C812.828308,505.671722 817.070129,506.784607 820.736511,508.896545 
	C914.492126,562.903198 1008.144470,617.089539 1101.966187,670.980957 
	C1110.559082,675.916687 1113.875244,682.103577 1113.840454,691.920715 
	C1113.566528,769.227844 1113.551025,846.536865 1113.848511,923.843811 
	C1113.888306,934.159729 1110.040527,940.370544 1101.203369,945.407349 
	C1007.781250,998.654175 914.459045,1052.077515 821.291626,1105.768555 
	C811.761597,1111.260620 804.009338,1111.284180 794.464294,1105.732544 
	C703.238098,1052.673218 611.796448,999.984436 520.425598,947.173950 
	C503.304993,937.278687 503.319946,937.247192 503.319580,917.716675 
	C503.318237,844.074036 503.318512,770.431458 503.321289,696.788818 
	C503.321411,693.789978 503.406311,690.790344 503.359070,687.792542 
	C503.255157,681.200928 505.901398,676.220093 511.776123,673.050171 
	C513.239990,672.260193 514.658997,671.387024 516.100220,670.555054 
	C609.232727,616.799316 702.357239,563.029785 795.527771,509.339874 
	C799.221741,507.211182 803.352844,505.840942 808.067383,504.105286 
M851.263000,711.735229 
	C837.166687,703.586426 823.070374,695.437683 808.496216,687.012695 
	C765.823547,711.664551 723.278015,736.243042 679.202454,761.705383 
	C723.113159,787.111572 765.859192,811.843933 808.504700,836.518127 
	C851.671692,811.552002 894.160645,786.978027 937.833252,761.719482 
	C908.366577,744.670410 880.468201,728.528748 851.263000,711.735229 
M591.675293,662.742188 
	C578.118652,670.627441 564.562012,678.512756 549.878174,687.053650 
	C562.036499,694.122986 572.620178,700.276794 583.354919,706.518433 
	C653.442444,666.062195 723.132202,625.835632 792.485535,585.803284 
	C792.485535,572.793457 792.485535,560.635254 792.485535,546.840210 
	C725.230530,585.665405 659.091187,623.846558 591.675293,662.742188 
M826.578918,936.476746 
	C825.782471,937.488708 824.307190,938.491333 824.293152,939.513977 
	C824.130798,951.348511 824.189453,963.185974 824.189453,976.667908 
	C905.613892,929.659973 985.729004,883.407959 1067.210083,836.367310 
	C1057.174438,830.474731 1048.442627,825.774597 1040.191895,820.343750 
	C1035.204834,817.061157 1031.436768,817.867859 1026.610596,820.674316 
	C960.469543,859.135193 894.219788,897.408875 826.578918,936.476746 
M588.649658,820.002441 
	C586.196533,819.415039 583.084534,817.566101 581.398315,818.446960 
	C571.189697,823.779602 561.306641,829.735779 549.895081,836.300232 
	C631.468323,883.418030 711.464905,929.801941 793.002563,976.608459 
	C793.002563,965.996704 792.441833,957.335815 793.165039,948.783508 
	C793.846375,940.725586 790.803040,936.394409 783.821777,932.404114 
	C719.079773,895.399170 654.560547,858.004456 588.649658,820.002441 
M1015.647217,657.405518 
	C983.962036,639.080750 952.329163,620.664795 920.577148,602.456604 
	C888.736938,584.197937 857.162781,565.454712 824.480347,547.279419 
	C824.480347,561.130859 824.480347,573.359253 824.480347,585.772400 
	C894.409058,626.137817 964.075989,666.352173 1033.644897,706.509949 
	C1044.945679,699.937134 1055.543213,693.773254 1067.206177,686.989685 
	C1049.756348,676.953125 1033.352905,667.518372 1015.647217,657.405518 
M928.828796,841.820129 
	C953.041809,827.732544 977.254822,813.645020 1002.463196,798.978333 
	C990.523743,792.044434 979.918884,785.885620 968.916870,779.496094 
	C920.583557,807.438599 872.335571,835.331787 824.109619,863.212158 
	C824.021179,876.277222 823.917969,888.626709 824.157776,902.455383 
	C859.767334,881.794800 893.645508,862.138794 928.828796,841.820129 
M945.411499,691.636414 
	C905.318726,668.390991 865.225891,645.145569 824.060791,621.278442 
	C824.060791,632.146790 824.587097,641.151917 823.900208,650.063477 
	C823.313049,657.680969 825.888062,661.884949 832.665100,665.728699 
	C875.734436,690.156555 918.505188,715.110840 961.385498,739.872253 
	C963.936401,741.345337 966.584045,742.650879 969.303223,744.096252 
	C980.125183,737.789429 990.726562,731.611206 1002.447449,724.780518 
	C983.296997,713.617676 965.005798,702.955688 945.411499,691.636414 
M689.985840,681.029297 
	C677.572510,688.149719 665.084961,695.144592 652.766724,702.425781 
	C640.446838,709.708008 627.585999,716.154602 614.854126,724.815247 
	C626.951050,731.699036 637.590454,737.753418 648.049988,743.705444 
	C685.625305,722.029846 722.523315,700.749023 759.416687,679.459961 
	C768.928345,673.971252 778.495972,668.572815 787.873413,662.862854 
	C789.923645,661.614502 792.637146,659.268555 792.717041,657.332092 
	C793.178711,646.141479 792.942383,634.922058 792.942383,621.865112 
	C757.937805,641.958008 724.584106,661.103271 689.985840,681.029297 
M749.729370,877.227722 
	C756.646179,881.215576 763.509583,885.299988 770.494751,889.164307 
	C777.530273,893.056396 784.094238,897.957642 792.318115,901.054626 
	C792.318115,887.429138 792.318115,875.195190 792.318115,863.020020 
	C743.898865,835.014893 695.871948,807.236694 647.891541,779.485352 
	C636.675476,785.876221 626.082825,791.911865 615.031372,798.208923 
	C616.381409,799.388428 616.806519,799.897644 617.345520,800.211121 
	C661.055969,825.629883 704.775269,851.033386 749.729370,877.227722 
M558.195007,766.579651 
	C566.489868,771.427612 574.784729,776.275635 583.214661,781.202576 
	C594.396545,774.710876 605.406982,768.942688 616.485535,761.441345 
	C604.617188,754.562927 593.989868,748.403748 583.355469,742.240540 
	C572.420898,748.595276 561.882446,754.719910 550.316406,761.441650 
	C553.204651,763.400513 555.043762,764.647827 558.195007,766.579651 
M1037.468872,779.067078 
	C1047.010620,773.453186 1056.552368,767.839294 1067.093018,761.637634 
	C1054.856567,754.551270 1044.245850,748.406433 1033.598267,742.240234 
	C1022.659119,748.612244 1012.150879,754.733276 1000.184509,761.703735 
	C1011.779907,768.410645 1021.998718,774.388123 1032.323120,780.177185 
	C1033.233032,780.687378 1034.833740,779.965515 1037.468872,779.067078 
M1082.700562,717.583130 
	C1081.852051,716.903564 1080.610718,715.457764 1080.214600,715.660767 
	C1075.343750,718.156921 1070.596558,720.894287 1064.568604,724.268250 
	C1071.252686,728.146606 1076.374023,731.118225 1082.753418,734.819702 
	C1082.753418,728.210266 1082.753418,723.623291 1082.700562,717.583130 
M1082.707153,805.399902 
	C1082.707153,800.258911 1082.707153,795.117981 1082.707153,788.379395 
	C1075.952271,792.420166 1070.875000,795.457458 1064.383301,799.340759 
	C1071.833374,801.835266 1075.421631,808.106934 1082.707153,805.399902 
M539.077271,791.430115 
	C537.622803,790.997498 536.168396,790.564880 534.766907,790.148010 
	C534.766907,796.414673 534.766907,802.131165 534.766907,809.271484 
	C540.984375,805.530762 546.032288,802.493652 551.941406,798.938416 
	C547.291931,796.167908 543.901611,794.147644 539.077271,791.430115 
M541.577759,730.592102 
	C544.706726,728.653015 547.835632,726.713928 552.234741,723.987732 
	C545.487915,720.356934 540.477905,717.660828 534.502930,714.445374 
	C534.502930,721.694458 534.502930,727.402344 534.502930,733.959900 
	C536.828796,732.943909 538.549927,732.192078 541.577759,730.592102 
z"/>
<path fill="#000000" opacity="1.000000" stroke="none" 
	d="
M1731.103760,578.417786 
	C1731.034180,578.461609 1731.173218,578.373962 1731.103760,578.417786 
z"/>
<path fill="#000000" opacity="1.000000" stroke="none" 
	d="
M3402.769043,666.283630 
	C3402.714600,666.227722 3402.823242,666.339539 3402.769043,666.283630 
z"/>
<path fill="#000000" opacity="1.000000" stroke="none" 
	d="
M2315.911621,683.947571 
	C2315.990479,670.410706 2316.069580,657.866028 2316.157227,643.959106 
	C2328.588867,643.959106 2339.829834,643.498291 2351.009766,644.124451 
	C2358.223145,644.528381 2365.538086,645.885437 2372.468262,647.952942 
	C2384.244141,651.466187 2391.392334,661.318359 2391.877930,673.083801 
	C2392.348877,684.500488 2385.104004,696.920776 2374.261230,700.620544 
	C2366.205566,703.369263 2357.569824,705.027527 2349.073975,705.720215 
	C2338.592041,706.574829 2327.987305,705.924622 2316.197021,705.924622 
	C2316.089600,698.029663 2316.000732,691.484741 2315.911621,683.947571 
z"/>
<path fill="#010101" opacity="1.000000" stroke="none" 
	d="
M2328.166748,530.075195 
	C2338.340088,530.799683 2347.643555,531.037476 2356.788330,532.368347 
	C2369.030518,534.150208 2377.689453,544.494568 2377.911377,556.427795 
	C2378.161133,569.858521 2370.268799,580.567871 2357.562500,583.660767 
	C2344.511963,586.837463 2331.278320,586.136536 2316.895264,585.545898 
	C2314.916748,567.473877 2316.161621,549.765869 2316.165771,530.923584 
	C2320.236572,530.611328 2323.731445,530.343201 2328.166748,530.075195 
z"/>
<path fill="#000000" opacity="1.000000" stroke="none" 
	d="
M2645.200684,703.860107 
	C2617.836426,705.824890 2599.734619,689.068787 2590.209717,663.706848 
	C2585.971924,652.422729 2583.384277,640.741882 2583.924316,628.574219 
	C2584.572021,613.984497 2584.685059,599.330933 2586.229248,584.832764 
	C2587.711914,570.911682 2593.943848,558.105530 2603.518799,548.354248 
	C2622.131592,529.398438 2648.280518,526.413757 2670.335449,543.422913 
	C2682.033447,552.444702 2688.989014,564.941406 2692.278076,579.383362 
	C2698.290771,605.785767 2698.467285,632.272156 2691.214355,658.329773 
	C2688.684814,667.417664 2683.756836,676.182617 2678.397217,684.055542 
	C2670.807617,695.204346 2659.547852,701.650208 2645.200684,703.860107 
z"/>
<path fill="#010101" opacity="1.000000" stroke="none" 
	d="
M1705.785645,1102.916626 
	C1710.562012,1103.426392 1714.516602,1103.793457 1718.477661,1103.890015 
	C1724.113037,1104.027710 1729.760376,1103.796875 1735.389771,1104.031128 
	C1743.330811,1104.361450 1748.407837,1107.510742 1749.707642,1112.523193 
	C1751.179810,1118.200562 1747.536377,1124.840332 1740.676880,1128.661987 
	C1727.236572,1136.149902 1713.282593,1135.667969 1699.389893,1130.472290 
	C1691.694580,1127.594238 1688.742188,1121.449463 1690.105469,1113.807007 
	C1691.402832,1106.534180 1696.383911,1102.795898 1705.785645,1102.916626 
z"/>
<path fill="#010101" opacity="1.000000" stroke="none" 
	d="
M1695.941162,1027.700073 
	C1696.045410,1024.199951 1695.832275,1021.491577 1696.335327,1018.923584 
	C1698.250854,1009.147705 1706.686401,1003.335083 1717.758667,1003.912842 
	C1727.360596,1004.413879 1734.734375,1011.079712 1735.850464,1020.458679 
	C1736.161865,1023.076233 1736.123535,1025.753052 1736.043579,1028.396606 
	C1735.720703,1039.083496 1729.119385,1047.212524 1720.178101,1048.048706 
	C1706.739258,1049.305542 1698.567871,1043.705444 1696.132202,1031.528564 
	C1695.939331,1030.564453 1696.006348,1029.548340 1695.941162,1027.700073 
z"/>
<path fill="#000000" opacity="1.000000" stroke="none" 
	d="
M2369.070312,1071.326416 
	C2355.927734,1080.421875 2342.044678,1081.289795 2327.736328,1079.334473 
	C2325.443848,1071.244385 2325.154541,981.324402 2327.235840,971.694702 
	C2363.110840,966.586365 2383.419678,982.701355 2385.783936,1013.875488 
	C2386.579346,1024.366455 2385.582520,1035.112305 2384.304688,1045.607666 
	C2383.060059,1055.828491 2377.799805,1064.351196 2369.070312,1071.326416 
z"/>
<path fill="#000000" opacity="1.000000" stroke="none" 
	d="
M2669.320801,1008.105225 
	C2679.074951,1011.563049 2682.922852,1017.554810 2682.249023,1027.444214 
	C2681.481201,1038.716675 2682.095459,1050.081543 2682.064453,1061.406128 
	C2682.037109,1071.291748 2674.446289,1080.398682 2664.412598,1081.781128 
	C2648.104980,1084.028198 2637.243896,1079.415161 2633.212402,1061.616089 
	C2630.437988,1049.366821 2630.281982,1036.539307 2634.897705,1024.241455 
	C2640.436279,1009.484924 2655.393555,1002.199341 2669.320801,1008.105225 
z"/>
<path fill="#000000" opacity="1.000000" stroke="none" 
	d="
M2682.025879,993.981323 
	C2682.052734,993.958069 2682.779541,994.494812 2682.779541,994.494812 
	C2682.779541,994.494812 2682.140381,994.498352 2682.047119,994.278992 
	C2681.953857,994.059631 2681.999268,994.004517 2682.025879,993.981323 
z"/>
<path fill="#010101" opacity="1.000000" stroke="none" 
	d="
M2079.396484,1008.623352 
	C2097.772461,1002.773071 2111.316162,1009.918030 2115.899902,1027.674927 
	C2119.377197,1041.146729 2119.816650,1054.614624 2113.325195,1067.543335 
	C2107.980957,1078.186279 2099.724609,1083.185791 2087.514648,1082.193237 
	C2076.718018,1081.315552 2070.780029,1075.044189 2066.979492,1065.884521 
	C2061.406494,1052.453735 2061.538086,1038.833252 2065.913574,1025.083374 
	C2068.154541,1018.040894 2073.035156,1013.220764 2079.396484,1008.623352 
z"/>
<path fill="#010101" opacity="1.000000" stroke="none" 
	d="
M2527.865967,1009.489380 
	C2534.130859,1006.023132 2539.856201,1004.286255 2546.554199,1005.554321 
	C2560.230957,1008.143433 2567.047607,1017.568298 2565.059570,1032.113647 
	C2558.148438,1034.313110 2527.222656,1034.805054 2515.248291,1032.809326 
	C2515.747314,1023.312805 2520.067627,1015.908447 2527.865967,1009.489380 
z"/>
<path fill="#2B2B2B" opacity="1.000000" stroke="none" 
	d="
M851.916382,712.061157 
	C880.468201,728.528748 908.366577,744.670410 937.833252,761.719482 
	C894.160645,786.978027 851.671692,811.552002 808.504700,836.518127 
	C765.859192,811.843933 723.113159,787.111572 679.202454,761.705383 
	C723.278015,736.243042 765.823547,711.664551 808.496216,687.012695 
	C823.070374,695.437683 837.166687,703.586426 851.916382,712.061157 
z"/>
<path fill="#2E2E2E" opacity="1.000000" stroke="none" 
	d="
M592.313599,662.384888 
	C659.091187,623.846558 725.230530,585.665405 792.485535,546.840210 
	C792.485535,560.635254 792.485535,572.793457 792.485535,585.803284 
	C723.132202,625.835632 653.442444,666.062195 583.354919,706.518433 
	C572.620178,700.276794 562.036499,694.122986 549.878174,687.053650 
	C564.562012,678.512756 578.118652,670.627441 592.313599,662.384888 
z"/>
<path fill="#2D2D2D" opacity="1.000000" stroke="none" 
	d="
M827.287842,936.102661 
	C894.219788,897.408875 960.469543,859.135193 1026.610596,820.674316 
	C1031.436768,817.867859 1035.204834,817.061157 1040.191895,820.343750 
	C1048.442627,825.774597 1057.174438,830.474731 1067.210083,836.367310 
	C985.729004,883.407959 905.613892,929.659973 824.189453,976.667908 
	C824.189453,963.185974 824.130798,951.348511 824.293152,939.513977 
	C824.307190,938.491333 825.782471,937.488708 827.287842,936.102661 
z"/>
<path fill="#2D2D2D" opacity="1.000000" stroke="none" 
	d="
M589.313171,820.362671 
	C654.560547,858.004456 719.079773,895.399170 783.821777,932.404114 
	C790.803040,936.394409 793.846375,940.725586 793.165039,948.783508 
	C792.441833,957.335815 793.002563,965.996704 793.002563,976.608459 
	C711.464905,929.801941 631.468323,883.418030 549.895081,836.300232 
	C561.306641,829.735779 571.189697,823.779602 581.398315,818.446960 
	C583.084534,817.566101 586.196533,819.415039 589.313171,820.362671 
z"/>
<path fill="#2D2D2D" opacity="1.000000" stroke="none" 
	d="
M1016.298279,657.744507 
	C1033.352905,667.518372 1049.756348,676.953125 1067.206177,686.989685 
	C1055.543213,693.773254 1044.945679,699.937134 1033.644897,706.509949 
	C964.075989,666.352173 894.409058,626.137817 824.480347,585.772400 
	C824.480347,573.359253 824.480347,561.130859 824.480347,547.279419 
	C857.162781,565.454712 888.736938,584.197937 920.577148,602.456604 
	C952.329163,620.664795 983.962036,639.080750 1016.298279,657.744507 
z"/>
<path fill="#2E2E2E" opacity="1.000000" stroke="none" 
	d="
M928.176270,842.151489 
	C893.645508,862.138794 859.767334,881.794800 824.157776,902.455383 
	C823.917969,888.626709 824.021179,876.277222 824.109619,863.212158 
	C872.335571,835.331787 920.583557,807.438599 968.916870,779.496094 
	C979.918884,785.885620 990.523743,792.044434 1002.463196,798.978333 
	C977.254822,813.645020 953.041809,827.732544 928.176270,842.151489 
z"/>
<path fill="#2E2E2E" opacity="1.000000" stroke="none" 
	d="
M946.063049,691.965088 
	C965.005798,702.955688 983.296997,713.617676 1002.447449,724.780518 
	C990.726562,731.611206 980.125183,737.789429 969.303223,744.096252 
	C966.584045,742.650879 963.936401,741.345337 961.385498,739.872253 
	C918.505188,715.110840 875.734436,690.156555 832.665100,665.728699 
	C825.888062,661.884949 823.313049,657.680969 823.900208,650.063477 
	C824.587097,641.151917 824.060791,632.146790 824.060791,621.278442 
	C865.225891,645.145569 905.318726,668.390991 946.063049,691.965088 
z"/>
<path fill="#2D2D2D" opacity="1.000000" stroke="none" 
	d="
M690.608093,680.638916 
	C724.584106,661.103271 757.937805,641.958008 792.942383,621.865112 
	C792.942383,634.922058 793.178711,646.141479 792.717041,657.332092 
	C792.637146,659.268555 789.923645,661.614502 787.873413,662.862854 
	C778.495972,668.572815 768.928345,673.971252 759.416687,679.459961 
	C722.523315,700.749023 685.625305,722.029846 648.049988,743.705444 
	C637.590454,737.753418 626.951050,731.699036 614.854126,724.815247 
	C627.585999,716.154602 640.446838,709.708008 652.766724,702.425781 
	C665.084961,695.144592 677.572510,688.149719 690.608093,680.638916 
z"/>
<path fill="#2D2D2D" opacity="1.000000" stroke="none" 
	d="
M749.111633,876.832886 
	C704.775269,851.033386 661.055969,825.629883 617.345520,800.211121 
	C616.806519,799.897644 616.381409,799.388428 615.031372,798.208923 
	C626.082825,791.911865 636.675476,785.876221 647.891541,779.485352 
	C695.871948,807.236694 743.898865,835.014893 792.318115,863.020020 
	C792.318115,875.195190 792.318115,887.429138 792.318115,901.054626 
	C784.094238,897.957642 777.530273,893.056396 770.494751,889.164307 
	C763.509583,885.299988 756.646179,881.215576 749.111633,876.832886 
z"/>
<path fill="#313131" opacity="1.000000" stroke="none" 
	d="
M557.538940,766.237427 
	C555.043762,764.647827 553.204651,763.400513 550.316406,761.441650 
	C561.882446,754.719910 572.420898,748.595276 583.355469,742.240540 
	C593.989868,748.403748 604.617188,754.562927 616.485535,761.441345 
	C605.406982,768.942688 594.396545,774.710876 583.214661,781.202576 
	C574.784729,776.275635 566.489868,771.427612 557.538940,766.237427 
z"/>
<path fill="#313131" opacity="1.000000" stroke="none" 
	d="
M1036.791260,779.441467 
	C1034.833740,779.965515 1033.233032,780.687378 1032.323120,780.177185 
	C1021.998718,774.388123 1011.779907,768.410645 1000.184509,761.703735 
	C1012.150879,754.733276 1022.659119,748.612244 1033.598267,742.240234 
	C1044.245850,748.406433 1054.856567,754.551270 1067.093018,761.637634 
	C1056.552368,767.839294 1047.010620,773.453186 1036.791260,779.441467 
z"/>
<path fill="#3D3D3D" opacity="1.000000" stroke="none" 
	d="
M1082.727051,718.309692 
	C1082.753418,723.623291 1082.753418,728.210266 1082.753418,734.819702 
	C1076.374023,731.118225 1071.252686,728.146606 1064.568604,724.268250 
	C1070.596558,720.894287 1075.343750,718.156921 1080.214600,715.660767 
	C1080.610718,715.457764 1081.852051,716.903564 1082.727051,718.309692 
z"/>
<path fill="#3D3D3D" opacity="1.000000" stroke="none" 
	d="
M1082.584717,806.178894 
	C1075.421631,808.106934 1071.833374,801.835266 1064.383301,799.340759 
	C1070.875000,795.457458 1075.952271,792.420166 1082.707153,788.379395 
	C1082.707153,795.117981 1082.707153,800.258911 1082.584717,806.178894 
z"/>
<path fill="#3D3D3D" opacity="1.000000" stroke="none" 
	d="
M539.794312,791.778748 
	C543.901611,794.147644 547.291931,796.167908 551.941406,798.938416 
	C546.032288,802.493652 540.984375,805.530762 534.766907,809.271484 
	C534.766907,802.131165 534.766907,796.414673 534.766907,790.148010 
	C536.168396,790.564880 537.622803,790.997498 539.794312,791.778748 
z"/>
<path fill="#3D3D3D" opacity="1.000000" stroke="none" 
	d="
M540.924438,731.016174 
	C538.549927,732.192078 536.828796,732.943909 534.502930,733.959900 
	C534.502930,727.402344 534.502930,721.694458 534.502930,714.445374 
	C540.477905,717.660828 545.487915,720.356934 552.234741,723.987732 
	C547.835632,726.713928 544.706726,728.653015 540.924438,731.016174 
z"/>
</svg>